<svg width="93" height="86" viewBox="0 0 93 86" fill="none" xmlns="http://www.w3.org/2000/svg">
<path d="M42.6406 15.6366C46.5468 15.6327 50.4101 16.4804 53.957 18.1171C57.5078 19.7538 60.6562 22.1444 63.1953 25.121C64.5547 26.6366 66.4531 27.5624 68.4843 27.6952C70.5156 27.828 72.5156 27.1601 74.0625 25.8319C75.6054 24.5038 76.5703 22.621 76.75 20.5898C76.9297 18.5585 76.3086 16.539 75.0195 14.9608C67.7656 6.45694 57.4765 1.14444 46.3554 0.163973C35.2383 -0.820403 24.1797 2.60928 15.5547 9.71475C6.93357 16.8163 1.43357 27.0233 0.24216 38.1483C-0.949247 49.2694 2.26169 60.414 9.18357 69.1874C1.19919 34.7187 22.7734 14.9023 42.6406 15.6366Z" fill="#FFF121"/>
<path d="M74.039 59.3904C73.2578 58.7225 72.3554 58.2186 71.3789 57.9021C70.4062 57.5857 69.375 57.4607 68.3515 57.5389C67.3281 57.6209 66.332 57.8982 65.4179 58.3592C64.5 58.824 63.6875 59.4607 63.0195 60.2381C60.0586 63.6795 56.2773 66.3279 52.0195 67.9295C47.7617 69.5389 43.1679 70.0506 38.6562 69.4256C34.1484 68.8006 29.871 67.0584 26.2148 64.3553C22.5625 61.6521 19.6484 58.0779 17.7461 53.9607C15.8398 49.8396 15.0078 45.3123 15.3242 40.7928C15.6406 36.2693 17.0937 31.9021 19.5468 28.0857C22.0039 24.2693 25.3867 21.1287 29.3789 18.9529C33.375 16.7811 37.8554 15.6404 42.4062 15.6404C22.4804 14.91 0.843707 34.6561 8.85152 69.035C12.7578 73.9764 17.7187 77.992 23.375 80.7967C29.0273 83.6014 35.2343 85.1209 41.5507 85.2498C47.8671 85.3787 54.1328 84.1131 59.8984 81.5428C65.6601 78.9686 70.7812 75.16 74.8867 70.3826C75.5585 69.6053 76.0703 68.7029 76.3906 67.7303C76.7109 66.7576 76.8359 65.7303 76.7578 64.7107C76.6796 63.6873 76.3984 62.6912 75.9296 61.7811C75.4648 60.867 74.8203 60.0545 74.039 59.3904Z" fill="#C9BE17"/>
<path d="M46.1719 34.8164H44.9453C42.9453 34.8945 41.0508 35.75 39.6602 37.207C38.2734 38.6641 37.4961 40.6094 37.4961 42.6289C37.4961 44.6484 38.2734 46.5938 39.6602 48.0508C41.0508 49.5078 42.9453 50.3633 44.9453 50.4414H70.9766C68.5273 34.9688 46.1719 34.8164 46.1719 34.8164Z" fill="#C9BE17"/>
<path d="M84.3477 34.8241H45.9805C45.9805 34.8241 68.3594 34.996 70.7656 50.4335H84.3477C85.3906 50.4764 86.4297 50.3046 87.4062 49.9296C88.3828 49.5546 89.2734 48.9881 90.0273 48.2577C90.7773 47.5311 91.3789 46.6561 91.7852 45.6874C92.1953 44.7225 92.4062 43.6796 92.4062 42.6288C92.4062 41.578 92.1953 40.535 91.7852 39.5702C91.3789 38.6014 90.7773 37.7264 90.0273 36.9999C89.2734 36.2694 88.3828 35.703 87.4062 35.328C86.4297 34.953 85.3906 34.7811 84.3477 34.8241Z" fill="#FFF121"/>
</svg>
